<?xml version="1.0" encoding="utf-8"?>
<!-- Generator: Adobe Illustrator 19.0.0, SVG Export Plug-In . SVG Version: 6.00 Build 0)  -->
<svg version="1.1" id="Isolation_Mode" xmlns="http://www.w3.org/2000/svg" xmlns:xlink="http://www.w3.org/1999/xlink" x="0px"
	 y="0px" viewBox="0 0 100 100" style="enable-background:new 0 0 100 100;" xml:space="preserve">
<style type="text/css">
	.st0{fill:#4B0C62;}
	.st1{fill:#FFFFFF;}
</style>
<circle class="st0" cx="50" cy="50" r="50"/>
<g>
	<path class="st1" d="M62.7,35.9c0-10.8-5.7-14.8-12.7-14.8c-7,0-12.7,3.9-12.7,14.8c0,8.2,5.7,14.8,12.7,14.8
		C57,50.7,62.7,44.1,62.7,35.9z"/>
	<path class="st1" d="M60.2,54c-2.1,2.3-5.6,6-10.2,10.7C45.3,60,41.9,56.3,39.8,54c-18.6,4.6-17.2,21.8-17.2,21.8
		c27.1,8.3,54.9,0,54.9,0S78.8,58.6,60.2,54z"/>
	<g>
		<path class="st1" d="M47.4,54.1l1.2,2.7h3.1l1.2-2.7C52.9,54.1,50,53.2,47.4,54.1z"/>
		<polygon class="st1" points="48.6,56.8 45.5,71 50.2,74.5 54.5,70.7 51.7,56.8 		"/>
	</g>
</g>
</svg>
