<?xml version="1.0" encoding="utf-8"?>
<!-- Generator: Adobe Illustrator 19.0.0, SVG Export Plug-In . SVG Version: 6.00 Build 0)  -->
<svg version="1.1" id="Layer_1" xmlns="http://www.w3.org/2000/svg" xmlns:xlink="http://www.w3.org/1999/xlink" x="0px" y="0px"
	 viewBox="0 0 44.6 33.8" style="enable-background:new 0 0 44.6 33.8;" xml:space="preserve">
<style type="text/css">
	.st0{fill:#D2BCD9;}
	.st1{display:none;fill:#D2BCD9;}
	.st2{display:none;}
	.st3{display:inline;}
	.st4{display:inline;fill:#D2BCD9;}
</style>
<path class="st0" d="M30.6,33.8l3-2.6l-2.9-18.7l8.3-7.2c1.3-1.1,1.4-3,0.3-4.2c-1.1-1.3-3-1.4-4.2-0.3L26.8,8l-18-5.6L5.8,5
	L20,13.9l-8.3,7.2L6.8,20l-2.3,2l6.1,4l3,6.6l2.3-2l-0.3-5l8.3-7.2L30.6,33.8z"/>
<path class="st1" d="M44.2,3.3c-0.9-1.6-3.1-2.2-4.7-1.3L28.9,8.1H2.9L0,10.4l17.5,4.2l-8.1,4.7l-7.9-1.9L0,19l11.5,7.1L42.9,7.9
	C44.5,7,45.1,4.9,44.2,3.3z M26.6,32.1H0.9C0.4,32.1,0,32.5,0,33s0.4,0.9,0.9,0.9h25.7c0.5,0,0.9-0.4,0.9-0.9S27.1,32.1,26.6,32.1z"
	/>
<g class="st2">
	<g class="st3">
		<path class="st0" d="M9.6,7.8c-2.8,0-5.1,2.3-5.1,5.1v15.9c0,2.8,2.3,5.1,5.1,5.1h0.6V7.8H9.6z"/>
		<path class="st0" d="M35,7.8h-0.6v26.1H35c2.8,0,5.1-2.3,5.1-5.1V12.9C40.1,10.1,37.8,7.8,35,7.8z"/>
	</g>
	<g class="st3">
		<circle class="st0" cx="28" cy="12.2" r="1.3"/>
		<path class="st0" d="M31.2,7.8V5.9c0-3.2-2.6-5.7-5.7-5.7h-6.4c-3.2,0-5.7,2.6-5.7,5.7v1.9h-1.3v26.1h20.4V7.8H31.2z M17.2,5.9
			c0-1.1,0.9-1.9,1.9-1.9h6.4c1.1,0,1.9,0.9,1.9,1.9v1.9H17.2V5.9z M30.6,14.8c0,0.3-0.2,0.8-0.4,1.1L24,21.9
			c-0.2,0.2-0.7,0.2-0.9,0l-4.8-4.8c-0.2-0.2-0.2-0.7,0-0.9l6.1-6.1c0.2-0.2,0.7-0.4,1.1-0.4h4.5c0.3,0,0.6,0.3,0.6,0.6V14.8z"/>
	</g>
</g>
<g class="st2">
	<rect x="6.4" y="11.3" class="st4" width="15" height="5.7"/>
	<rect x="23.3" y="11.3" class="st4" width="15" height="5.7"/>
	<polygon class="st4" points="17,22.7 14.8,22.7 17.9,18.3 8.2,18.3 8.2,33.8 21.3,33.8 21.3,19.7 17.9,24.4 	"/>
	<polygon class="st4" points="29.2,22.3 26.8,22.5 26.1,24 23.3,20.2 23.3,33.8 36.5,33.8 36.5,18.3 26.3,18.3 	"/>
	<path class="st4" d="M23.6,10.3c1.8,0,5.3-0.1,7.2-0.5c1.6-0.3,2.9-1.2,3.7-2.6c0.8-1.3,1-2.8,0.6-4.3c-0.3-1-0.8-1.8-1.7-2.3
		C32.8,0.2,31.9,0,31,0c-1.2,0-2.4,0.4-3.3,0.9c-2.5,1.6-4,3.7-4.9,5.1c-0.2,0.3-0.3,0.6-0.5,0.8C22.2,6.6,22,6.3,21.8,6
		c-0.9-1.4-2.4-3.5-4.9-5.1C16,0.4,14.8,0,13.6,0c-0.9,0-1.8,0.2-2.5,0.6c-0.8,0.5-1.4,1.3-1.7,2.3c-0.4,1.5-0.2,3,0.6,4.3
		c0.8,1.3,2.1,2.2,3.7,2.6c1.9,0.4,5.4,0.5,7.2,0.5l0,0l0.5,0c0.3,0,0.5,0,0.6,0h0.5c0.1,0,0.3,0,0.6,0L23.6,10.3L23.6,10.3z
		 M24.2,8c0.7-1.4,2.1-3.6,4.7-5.2c0.5-0.4,1.3-0.6,2.1-0.6c1.1,0,1.7,0.4,2,1.3c0.2,0.9,0.1,1.8-0.4,2.5c-0.3,0.5-1,1.3-2.3,1.5
		C28.8,7.9,25.8,8,24.2,8z M14.3,7.6C13,7.3,12.4,6.6,12,6c-0.5-0.7-0.6-1.7-0.4-2.5c0.2-0.8,0.9-1.3,2-1.3c0.7,0,1.5,0.2,2.1,0.6
		c2.1,1.4,3.4,3.1,4.2,4.3c0.2,0.3,0.3,0.6,0.5,0.9C18.8,8,15.9,7.9,14.3,7.6z"/>
</g>
</svg>
