<?xml version="1.0" encoding="utf-8"?>
<!-- Generator: Adobe Illustrator 19.0.0, SVG Export Plug-In . SVG Version: 6.00 Build 0)  -->
<svg version="1.1" id="Layer_1" xmlns="http://www.w3.org/2000/svg" xmlns:xlink="http://www.w3.org/1999/xlink" x="0px" y="0px"
	 viewBox="0 0 17.8 17.8" style="enable-background:new 0 0 17.8 17.8;" xml:space="preserve">
<style type="text/css">
	.st0{fill:#F8B242;}
</style>
<rect id="XMLID_3_" x="14" y="12.4" transform="matrix(0.7071 -0.7071 0.7071 0.7071 -6.2493 15.1122)" class="st0" width="2.2" height="5.4"/>
<path id="XMLID_5_" class="st0" d="M12.9,2.2c-2.9-2.9-7.7-2.9-10.7,0c-2.9,2.9-2.9,7.7,0,10.7c2.9,2.9,7.7,2.9,10.7,0
	C15.8,9.9,15.8,5.1,12.9,2.2z M3.5,11.6c-2.3-2.3-2.3-5.9,0-8.2c2.3-2.3,5.9-2.3,8.2,0s2.3,5.9,0,8.2C9.4,13.9,5.7,13.9,3.5,11.6z"
	/>
</svg>
