<?xml version="1.0" encoding="utf-8"?>
<!-- Generator: Adobe Illustrator 19.0.0, SVG Export Plug-In . SVG Version: 6.00 Build 0)  -->
<svg version="1.1" id="Isolation_Mode" xmlns="http://www.w3.org/2000/svg" xmlns:xlink="http://www.w3.org/1999/xlink" x="0px"
	 y="0px" viewBox="0 0 78 56.5" style="enable-background:new 0 0 78 56.5;" xml:space="preserve">
<style type="text/css">
	.st0{fill:#CBB7D1;}
</style>
<path class="st0" d="M77.2,3c-1.6-2.9-5.3-3.8-8.2-2.2L50.5,11.5H5l-5,4.1l30.6,7.4l-14.1,8.2L2.8,27.8L0,30.6l20.1,12.3L75,11.2
	C77.9,9.5,78.9,5.9,77.2,3z M46.5,53.5h-45C0.7,53.5,0,54.1,0,55c0,0.8,0.7,1.5,1.5,1.5h45c0.8,0,1.5-0.7,1.5-1.5
	C48,54.1,47.3,53.5,46.5,53.5z"/>
</svg>
