<?xml version="1.0" encoding="utf-8"?>
<!-- Generator: Adobe Illustrator 19.0.0, SVG Export Plug-In . SVG Version: 6.00 Build 0)  -->
<svg version="1.1" id="_x2014_ÎÓÈ_x5F_1" xmlns="http://www.w3.org/2000/svg" xmlns:xlink="http://www.w3.org/1999/xlink"
	 x="0px" y="0px" viewBox="17 -147.1 334.5 355.1" style="enable-background:new 17 -147.1 334.5 355.1;" xml:space="preserve">
<style type="text/css">
	.st0{fill:#E4DAE7;}
</style>
<g>
	<rect x="17" y="-28.2" class="st0" width="157.1" height="59.6"/>
	<rect x="194.4" y="-28.2" class="st0" width="157.1" height="59.6"/>
	<polygon class="st0" points="128.2,90.6 104.9,91.2 138.3,45.1 35.8,45.1 35.8,208 174.1,208 174.1,59.1 137.7,109.3 	"/>
	<polygon class="st0" points="256.7,87.1 231.5,88.7 223.5,104.7 194.4,64.5 194.4,208 332.7,208 332.7,45.1 226.3,45.1 	"/>
	<path class="st0" d="M197.8-38.9c18.6-0.3,55.4-1.3,75.5-5.7c16.7-3.6,30.5-13.1,38.9-26.8c8.2-13.3,10.6-29.7,6.6-44.9
		c-2.7-10.4-8.8-18.8-17.5-24.1c-7.2-4.4-16.1-6.7-25.8-6.7c-12.3,0-25.3,3.7-34.8,9.8c-26,16.9-42.4,38.4-51.5,53.5
		c-1.7,2.9-3.4,5.8-4.9,8.7c-1.5-2.9-3.2-5.9-4.9-8.7c-9.1-15.1-25.5-36.7-51.5-53.5c-9.6-6.1-22.6-9.8-34.9-9.8
		c-9.7,0-18.7,2.3-25.8,6.7c-8.7,5.3-14.8,13.7-17.5,24.1c-4,15.3-1.6,31.6,6.6,44.9c8.4,13.7,22.2,23.2,38.9,26.8
		c20.1,4.3,57.1,5.4,75.6,5.7l0,0h4.8c2.9,0,4.9,0,5.9,0h5.5c1,0,3,0,5.9,0H197.8L197.8-38.9z M204.4-62.6
		c7.5-14.5,22.5-37.6,49.1-54.8c5.7-3.7,14.2-6,22-6c11.3,0,18.2,4.4,20.5,13.2c2.4,9.1,1,18.8-3.8,26.6c-3.5,5.8-10.5,13.2-23.8,16
		C252-64.2,221.1-63,204.4-62.6z M100.1-67.7c-13.2-2.8-20.2-10.3-23.8-16c-4.8-7.8-6.2-17.5-3.8-26.6c2.3-8.8,9.2-13.2,20.5-13.2
		c7.8,0,16.2,2.3,22,6c22.1,14.3,36,32.6,43.9,45.4c1.9,3.1,3.6,6.2,5.3,9.4C147.4-63,116.5-64.2,100.1-67.7z"/>
</g>
</svg>
