<?xml version="1.0" encoding="utf-8"?>
<!-- Generator: Adobe Illustrator 19.0.0, SVG Export Plug-In . SVG Version: 6.00 Build 0)  -->
<svg version="1.1" id="Layer_1" xmlns="http://www.w3.org/2000/svg" xmlns:xlink="http://www.w3.org/1999/xlink" x="0px" y="0px"
	 viewBox="0 0 153.9 162" style="enable-background:new 0 0 153.9 162;" xml:space="preserve">
<style type="text/css">
	.st0{fill:#CBB7D1;}
</style>
<g>
	<path class="st0" d="M0,14.5V162h153.9V14.5H0z M146.6,154.8H7.2V56.1h139.4V154.8z"/>
	<rect x="17.2" class="st0" width="21.7" height="7.2"/>
	<rect x="114.9" class="st0" width="21.7" height="7.2"/>
	<rect x="49.8" y="66.5" class="st0" width="21.7" height="19.9"/>
	<rect x="82.4" y="66.5" class="st0" width="21.7" height="19.9"/>
	<rect x="114.9" y="66.5" class="st0" width="21.7" height="19.9"/>
	<rect x="17.2" y="96.4" class="st0" width="21.7" height="19.9"/>
	<rect x="49.8" y="96.4" class="st0" width="21.7" height="19.9"/>
	<rect x="82.4" y="96.4" class="st0" width="21.7" height="19.9"/>
	<rect x="114.9" y="96.4" class="st0" width="21.7" height="19.9"/>
	<rect x="17.2" y="126.2" class="st0" width="21.7" height="19.9"/>
	<rect x="49.8" y="126.2" class="st0" width="21.7" height="19.9"/>
	<rect x="82.4" y="126.2" class="st0" width="21.7" height="19.9"/>
</g>
</svg>
