<?xml version="1.0" encoding="utf-8"?>
<!-- Generator: Adobe Illustrator 19.0.0, SVG Export Plug-In . SVG Version: 6.00 Build 0)  -->
<svg version="1.1" id="Layer_1" xmlns="http://www.w3.org/2000/svg" xmlns:xlink="http://www.w3.org/1999/xlink" x="0px" y="0px"
	 viewBox="-275 401.4 44.6 36.5" style="enable-background:new -275 401.4 44.6 36.5;" xml:space="preserve">
<style type="text/css">
	.st0{display:none;fill:#4B0C62;}
	.st1{display:none;}
	.st2{display:inline;}
	.st3{fill:#4B0C62;}
	.st4{display:inline;fill:#4B0C62;}
	.st5{fill-rule:evenodd;clip-rule:evenodd;fill:#4B0C62;}
</style>
<path class="st0" d="M-1167.8,931.6c-0.9-1.6-3.1-2.2-4.7-1.3l-10.6,6.1h-26l-2.9,2.3l17.5,4.2l-8.1,4.7l-7.9-1.9l-1.5,1.6l11.5,7.1
	l31.4-18.2C-1167.5,935.3-1166.9,933.2-1167.8,931.6z M-1185.4,960.4h-25.7c-0.5,0-0.9,0.4-0.9,0.9s0.4,0.9,0.9,0.9h25.7
	c0.5,0,0.9-0.4,0.9-0.9S-1184.9,960.4-1185.4,960.4z"/>
<g class="st1">
	<g class="st2">
		<path class="st3" d="M-1202.4,936.1c-2.8,0-5.1,2.3-5.1,5.1v15.9c0,2.8,2.3,5.1,5.1,5.1h0.6v-26.1H-1202.4z"/>
		<path class="st3" d="M-1177,936.1h-0.6v26.1h0.6c2.8,0,5.1-2.3,5.1-5.1v-15.9C-1171.9,938.4-1174.2,936.1-1177,936.1z"/>
	</g>
	<g class="st2">
		<circle class="st3" cx="-1184" cy="940.5" r="1.3"/>
		<path class="st3" d="M-1180.8,936.1v-1.9c0-3.2-2.6-5.7-5.7-5.7h-6.4c-3.2,0-5.7,2.6-5.7,5.7v1.9h-1.3v26.1h20.4v-26.1H-1180.8z
			 M-1194.8,934.2c0-1.1,0.9-1.9,1.9-1.9h6.4c1.1,0,1.9,0.9,1.9,1.9v1.9h-10.2L-1194.8,934.2L-1194.8,934.2z M-1181.4,943.1
			c0,0.3-0.2,0.8-0.4,1.1l-6.2,6c-0.2,0.2-0.7,0.2-0.9,0l-4.8-4.8c-0.2-0.2-0.2-0.7,0-0.9l6.1-6.1c0.2-0.2,0.7-0.4,1.1-0.4h4.5
			c0.3,0,0.6,0.3,0.6,0.6L-1181.4,943.1L-1181.4,943.1z"/>
	</g>
</g>
<g class="st1">
	<rect x="-1205.6" y="939.6" class="st4" width="15" height="5.7"/>
	<rect x="-1188.7" y="939.6" class="st4" width="15" height="5.7"/>
	<polygon class="st4" points="-1195,951 -1197.2,951 -1194.1,946.6 -1203.8,946.6 -1203.8,962.1 -1190.7,962.1 -1190.7,948 
		-1194.1,952.7 	"/>
	<polygon class="st4" points="-1182.8,950.6 -1185.2,950.8 -1185.9,952.3 -1188.7,948.5 -1188.7,962.1 -1175.5,962.1 -1175.5,946.6 
		-1185.7,946.6 	"/>
	<path class="st4" d="M-1188.4,938.6c1.8,0,5.3-0.1,7.2-0.5c1.6-0.3,2.9-1.2,3.7-2.6c0.8-1.3,1-2.8,0.6-4.3c-0.3-1-0.8-1.8-1.7-2.3
		c-0.6-0.4-1.5-0.6-2.4-0.6c-1.2,0-2.4,0.4-3.3,0.9c-2.5,1.6-4,3.7-4.9,5.1c-0.2,0.3-0.3,0.6-0.5,0.8c-0.1-0.2-0.3-0.5-0.5-0.8
		c-0.9-1.4-2.4-3.5-4.9-5.1c-0.9-0.5-2.1-0.9-3.3-0.9c-0.9,0-1.8,0.2-2.5,0.6c-0.8,0.5-1.4,1.3-1.7,2.3c-0.4,1.5-0.2,3,0.6,4.3
		s2.1,2.2,3.7,2.6c1.9,0.4,5.4,0.5,7.2,0.5l0,0h0.5c0.3,0,0.5,0,0.6,0h0.5c0.1,0,0.3,0,0.6,0H-1188.4L-1188.4,938.6z M-1187.8,936.3
		c0.7-1.4,2.1-3.6,4.7-5.2c0.5-0.4,1.3-0.6,2.1-0.6c1.1,0,1.7,0.4,2,1.3c0.2,0.9,0.1,1.8-0.4,2.5c-0.3,0.5-1,1.3-2.3,1.5
		C-1183.2,936.2-1186.2,936.3-1187.8,936.3z M-1197.7,935.9c-1.3-0.3-1.9-1-2.3-1.6c-0.5-0.7-0.6-1.7-0.4-2.5c0.2-0.8,0.9-1.3,2-1.3
		c0.7,0,1.5,0.2,2.1,0.6c2.1,1.4,3.4,3.1,4.2,4.3c0.2,0.3,0.3,0.6,0.5,0.9C-1193.2,936.3-1196.1,936.2-1197.7,935.9z"/>
</g>
<path class="st5" d="M-236.6,412.8h-12c-1.1,0-2,0.9-2,2l0.1,7.5H-261c-1.1,0-2,0.9-2,2l-0.1,13.6h12.4h1.8h3.5v-5.8
	c0-0.4,0.3-0.7,0.7-0.7h4c0.4,0,0.7,0.3,0.7,0.7v5.8h5.3v-23.1C-234.7,413.7-235.5,412.8-236.6,412.8L-236.6,412.8z M-257.2,433.4
	L-257.2,433.4c0,0.3-0.3,0.6-0.6,0.6h-2.1c-0.3,0-0.6-0.3-0.6-0.6v-2.1c0-0.3,0.3-0.6,0.6-0.6h2.1c0.3,0,0.6,0.3,0.6,0.6V433.4
	L-257.2,433.4z M-257.2,428.5L-257.2,428.5c0,0.3-0.3,0.6-0.6,0.6h-2.1c-0.3,0-0.6-0.3-0.6-0.6v-2.1c0-0.3,0.3-0.6,0.6-0.6h2.1
	c0.3,0,0.6,0.3,0.6,0.6V428.5L-257.2,428.5z M-251.4,433.4L-251.4,433.4c0,0.3-0.3,0.6-0.6,0.6h-2.1c-0.3,0-0.6-0.3-0.6-0.6v-2.1
	c0-0.3,0.3-0.6,0.6-0.6h2.1c0.3,0,0.6,0.3,0.6,0.6V433.4L-251.4,433.4z M-251.4,428.5L-251.4,428.5c0,0.3-0.3,0.6-0.6,0.6h-2.1
	c-0.3,0-0.6-0.3-0.6-0.6v-2.1c0-0.3,0.3-0.6,0.6-0.6h2.1c0.3,0,0.6,0.3,0.6,0.6V428.5L-251.4,428.5z M-243.9,419L-243.9,419
	c0,0.3-0.3,0.6-0.6,0.6h-2.1c-0.3,0-0.6-0.3-0.6-0.6V417c0-0.3,0.3-0.6,0.6-0.6h2.1c0.3,0,0.6,0.3,0.6,0.6V419L-243.9,419z
	 M-237.9,419L-237.9,419c0,0.3-0.3,0.6-0.6,0.6h-2.1c-0.3,0-0.6-0.3-0.6-0.6V417c0-0.3,0.3-0.6,0.6-0.6h2.1c0.3,0,0.6,0.3,0.6,0.6
	V419L-237.9,419z M-246,428.5L-246,428.5h-0.7l0-0.9h-0.7l0,0.9h-0.7l0-2.1l0.7,0l0,0.7l0.7,0l0-0.7l0.7,0L-246,428.5L-246,428.5z
	 M-243.6,428L-243.6,428c-0.1,0.2-0.2,0.3-0.4,0.4c-0.2,0.1-0.4,0.1-0.6,0.1c-0.2,0-0.4,0-0.6-0.1c-0.2-0.1-0.3-0.2-0.4-0.4
	c-0.1-0.2-0.1-0.4-0.1-0.6c0-0.3,0.1-0.6,0.3-0.8c0.2-0.2,0.5-0.3,0.8-0.3c0.4,0,0.6,0.1,0.8,0.3c0.2,0.2,0.3,0.5,0.3,0.8
	C-243.5,427.7-243.5,427.9-243.6,428L-243.6,428z M-241.3,426.9L-241.3,426.9l-0.7,0l0,1.6l-0.7,0l0-1.6l-0.7,0l0-0.5l2,0
	L-241.3,426.9L-241.3,426.9z M-239.3,428.5L-239.3,428.5l-1.8,0l0-2.1l1.8,0l0,0.5l-1.1,0v0.3l1,0v0.4l-1,0l0,0.4l1.1,0
	L-239.3,428.5L-239.3,428.5z M-237.2,428.5L-237.2,428.5l-1.7,0l0-2.1l0.7,0l0,1.6l1,0L-237.2,428.5L-237.2,428.5z M-244.6,426.8
	c0.1,0,0.2,0,0.3,0.1c0.1,0.1,0.1,0.2,0.1,0.4c0,0.2,0,0.4-0.1,0.5c-0.1,0.1-0.2,0.1-0.3,0.1c-0.1,0-0.2,0-0.3-0.1
	c-0.1-0.1-0.1-0.2-0.1-0.5c0-0.2,0-0.4,0.1-0.5C-244.8,426.9-244.7,426.8-244.6,426.8L-244.6,426.8z M-246.9,422.8l0.1,0.5l0.5,0
	c0,0,0.1,0,0.1,0.1c0,0,0,0,0,0l-0.4,0.3l0.2,0.5c0,0,0,0.1,0,0.1c0,0,0,0,0,0l-0.4-0.3l-0.4,0.3c0,0-0.1,0-0.1,0c0,0,0,0,0,0
	l0.2-0.5l-0.4-0.3c0,0,0,0,0-0.1c0,0,0,0,0,0l0.5,0L-246.9,422.8C-247,422.8-247,422.8-246.9,422.8
	C-246.9,422.8-246.9,422.8-246.9,422.8L-246.9,422.8z M-244.8,422.8l0.1,0.5l0.5,0c0,0,0.1,0,0.1,0.1c0,0,0,0,0,0l-0.4,0.3l0.2,0.5
	c0,0,0,0.1,0,0.1c0,0,0,0,0,0l-0.4-0.3l-0.4,0.3c0,0-0.1,0-0.1,0c0,0,0,0,0,0l0.2-0.5l-0.4-0.3c0,0,0,0,0-0.1c0,0,0,0,0,0l0.5,0
	L-244.8,422.8C-244.9,422.8-244.9,422.8-244.8,422.8C-244.8,422.8-244.8,422.8-244.8,422.8L-244.8,422.8z M-242.7,422.8l0.1,0.5
	l0.5,0c0,0,0.1,0,0.1,0.1c0,0,0,0,0,0l-0.4,0.3l0.2,0.5c0,0,0,0.1,0,0.1c0,0,0,0,0,0l-0.4-0.3l-0.4,0.3c0,0-0.1,0-0.1,0c0,0,0,0,0,0
	l0.2-0.5l-0.4-0.3c0,0,0,0,0-0.1c0,0,0,0,0,0l0.5,0L-242.7,422.8C-242.8,422.8-242.7,422.8-242.7,422.8
	C-242.7,422.8-242.7,422.8-242.7,422.8L-242.7,422.8z M-240.5,422.8l0.1,0.5l0.5,0c0,0,0.1,0,0.1,0.1c0,0,0,0,0,0l-0.4,0.3l0.2,0.5
	c0,0,0,0.1,0,0.1c0,0,0,0,0,0l-0.4-0.3l-0.4,0.3c0,0-0.1,0-0.1,0c0,0,0,0,0,0l0.2-0.5l-0.4-0.3c0,0,0,0,0-0.1c0,0,0,0,0,0l0.5,0
	L-240.5,422.8C-240.6,422.8-240.6,422.8-240.5,422.8C-240.6,422.8-240.6,422.8-240.5,422.8L-240.5,422.8z M-238.4,422.8l0.1,0.5
	l0.5,0c0,0,0.1,0,0.1,0.1c0,0,0,0,0,0l-0.4,0.3l0.2,0.5c0,0,0,0.1,0,0.1c0,0,0,0,0,0l-0.4-0.3l-0.4,0.3c0,0-0.1,0-0.1,0c0,0,0,0,0,0
	l0.2-0.5l-0.4-0.3c0,0,0,0,0-0.1c0,0,0,0,0,0l0.5,0L-238.4,422.8C-238.5,422.8-238.5,422.8-238.4,422.8
	C-238.4,422.8-238.4,422.8-238.4,422.8z"/>
<path class="st5" d="M-253.6,401.8c1-0.5,1.9-0.7,2.3-0.1c0.5,0.5,0.2,1.4-0.4,2.3c-0.9,1.3-2.3,2.8-2.7,3.1
	c-0.2,0.2-0.5,0.5-0.9,0.8l-0.7,0.6c0.1,0.8,0.3,2,0.5,3.3c0.4,2.1,0.8,4.3,1.1,5.5l0,0c0.1,0.2,0.1,0.5,0,0.7
	c0,0.3-0.2,0.5-0.3,0.7l-0.4,0.3l0,0c0,0-0.1,0-0.1,0.1c0,0,0,0-0.1,0c-0.2,0.1-0.4,0.1-0.6,0c-0.1-0.1-0.2-0.1-0.3-0.2l0,0
	c-0.1-0.1-0.1-0.2-0.2-0.2c0,0,0,0,0-0.1c0-0.1-0.5-0.9-1.1-2c-0.9-1.6-2-3.7-2.5-4.6c-0.3,0.3-0.6,0.5-0.9,0.8
	c-0.5,0.4-1,0.8-1.5,1.2l0,0l0,0c-0.4,0.3-0.8,0.6-1.3,0.9c-0.3,0.2-0.6,0.4-0.9,0.5l0.4,2.8c0,0.2,0,0.4,0,0.6l0,0
	c-0.1,0.2-0.2,0.3-0.3,0.5c0,0,0,0,0,0l-0.5,0.5c0,0-0.1,0.1-0.1,0.1c-0.3,0.2-0.6,0-0.8-0.2c-0.7-1.3-1.3-2.3-2-3.1
	c-0.7-0.8-1.6-1.5-2.8-2.4l0,0c0,0-0.1-0.1-0.1-0.1c-0.2-0.2-0.2-0.6,0.1-0.8l0.5-0.5c0.2-0.1,0.4-0.2,0.6-0.3c0.2,0,0.4,0,0.6,0
	l2.7,0.7c0.2-0.3,0.4-0.5,0.6-0.8c0.3-0.4,0.7-0.8,1-1.1c0.5-0.5,0.9-0.9,1.4-1.4c0.3-0.3,0.6-0.6,0.9-0.8c-0.9-0.6-2.8-2-4.2-3.1
	c-1-0.7-1.8-1.3-1.9-1.4l0,0c-0.1-0.1-0.2-0.1-0.3-0.2c-0.1-0.1-0.1-0.2-0.2-0.3c-0.1-0.2,0-0.4,0.1-0.6l0,0c0-0.1,0.1-0.1,0.1-0.2
	l0.4-0.3c0.2-0.2,0.4-0.3,0.7-0.3c0.2,0,0.5,0,0.7,0.1c0.6,0.2,3,1,5.2,1.7c1.4,0.4,2.7,0.8,3.3,1l0.7-0.6l0,0
	c0.2-0.2,0.6-0.5,0.9-0.8l0,0C-256.6,403.8-254.9,402.5-253.6,401.8z"/>
</svg>
