<?xml version="1.0" encoding="utf-8"?>
<!-- Generator: Adobe Illustrator 19.0.0, SVG Export Plug-In . SVG Version: 6.00 Build 0)  -->
<svg version="1.1" id="Isolation_Mode" xmlns="http://www.w3.org/2000/svg" xmlns:xlink="http://www.w3.org/1999/xlink" x="0px"
	 y="0px" viewBox="0 0 100 100" style="enable-background:new 0 0 100 100;" xml:space="preserve">
<style type="text/css">
	.st0{fill:#4B0C62;}
	.st1{fill:#FFFFFF;}
</style>
<circle class="st0" cx="50" cy="50" r="50"/>
<path class="st1" d="M35.9,69.6l-0.4-0.3l-8.9-3.8l1.8-2.3l7,0.3l0.7-0.3l11-13.5l-23.1-9.2l2.7-3.4l27.3,3.4l0.8-0.3l10.3-12.7
	c1.3-1.5,3.5-1.8,5.1-0.5c1.5,1.3,1.8,3.5,0.5,5.1L60.4,44.8l-0.1,0.8l8.9,26l-2.7,3.4L52.7,54.2l-11,13.5l-0.2,0.7l1.7,6.8
	l-1.8,2.3L35.9,69.6z"/>
</svg>
