<?xml version="1.0" encoding="utf-8"?>
<!-- Generator: Adobe Illustrator 19.0.0, SVG Export Plug-In . SVG Version: 6.00 Build 0)  -->
<svg version="1.1" id="Layer_1" xmlns="http://www.w3.org/2000/svg" xmlns:xlink="http://www.w3.org/1999/xlink" x="0px" y="0px"
	 viewBox="0 0 100 100" style="enable-background:new 0 0 100 100;" xml:space="preserve">
<style type="text/css">
	.st0{display:none;}
	.st1{display:inline;fill:#4A2161;}
	.st2{fill:#4A2161;}
</style>
<g id="XMLID_28_" class="st0">
	<path id="XMLID_30_" class="st1" d="M50,100C22.4,100,0,77.6,0,50S22.4,0,50,0c27.6,0,50,22.4,50,50S77.6,100,50,100z M50,2.4
		C23.8,2.4,2.4,23.8,2.4,50S23.8,97.6,50,97.6c26.2,0,47.6-21.3,47.6-47.6S76.2,2.4,50,2.4z"/>
	<path id="XMLID_10_" class="st1" d="M39.4,42.6h4.5v-4.4c0-1.9,0-4.9,1.5-6.8c1.5-2,3.5-3.3,7-3.3c5.7,0,8.1,0.8,8.1,0.8l-1.1,6.7
		c0,0-1.9-0.5-3.7-0.5c-1.8,0-3.3,0.6-3.3,2.4v5.1h7.2l-0.5,6.6h-6.7V72h-8.5V49.1h-4.5V42.6z"/>
</g>
<g id="XMLID_23_" class="st0">
	<path id="XMLID_25_" class="st1" d="M50,100c-27.6,0-50-22.4-50-50s22.4-50,50-50c27.6,0,50,22.4,50,50S77.6,100,50,100z M50,2.5
		C23.8,2.5,2.5,23.8,2.5,50S23.8,97.6,50,97.6c26.2,0,47.5-21.3,47.5-47.5S76.2,2.5,50,2.5z"/>
	<path id="XMLID_7_" class="st1" d="M72,38.8c-1.6,0.7-3.4,1.2-5.2,1.4c1.9-1.1,3.3-2.9,4-5c-1.7,1-3.7,1.8-5.7,2.2
		c-1.6-1.7-4-2.8-6.6-2.8c-5,0-9,4-9,9c0,0.7,0.1,1.4,0.2,2.1c-7.5-0.4-14.1-4-18.6-9.4c-0.8,1.3-1.2,2.9-1.2,4.5
		c0,3.1,1.6,5.9,4,7.5c-1.5,0-2.9-0.5-4.1-1.1v0.1c0,4.4,3.1,8,7.2,8.8c-0.8,0.2-1.5,0.3-2.4,0.3c-0.6,0-1.1-0.1-1.7-0.2
		c1.1,3.6,4.5,6.2,8.4,6.2c-3.1,2.4-7,3.9-11.2,3.9c-0.7,0-1.4,0-2.1-0.1c4,2.6,8.7,4,13.8,4c16.6,0,25.6-13.7,25.6-25.6
		c0-0.4,0-0.8,0-1.2C69.2,42.2,70.8,40.6,72,38.8"/>
</g>
<g id="XMLID_14_">
	<path id="XMLID_15_" class="st2" d="M42.7,69.6c-5.2,0-9-3.3-9-7.3c0-3.9,4.7-7.1,9.9-7.1c1.2,0,2.4,0.2,3.4,0.5
		c2.8,2,4.9,3.1,5.4,5.3c0.1,0.5,0.2,0.9,0.2,1.4C52.6,66.6,50.1,69.6,42.7,69.6 M44.1,46.4c-3.5-0.1-6.8-3.9-7.4-8.5
		c-0.6-4.6,1.7-8.1,5.2-8c3.5,0.1,6.8,3.8,7.4,8.4C50,42.8,47.6,46.5,44.1,46.4 M51.4,53.2c-1.2-0.9-3.6-3-3.6-4.2
		c0-1.5,0.4-2.2,2.6-3.9c2.2-1.8,3.8-4.2,3.8-7.1c0-3.4-1.5-6.8-4.4-7.9h4.3l3-2.2H43.6c-6.1,0-11.8,4.6-11.8,10
		c0,5.5,4.2,9.9,10.4,9.9c0.4,0,0.8,0,1.3,0c-0.4,0.8-0.7,1.6-0.7,2.5c0,1.5,0.8,2.8,1.9,3.8c-0.8,0-1.5,0-2.4,0
		c-7.5,0-13.4,4.8-13.4,9.8c0,4.9,6.4,8,13.9,8c8.6,0,13.4-4.9,13.4-9.8C56.1,58.1,55,55.7,51.4,53.2 M71.1,46.8h-5.3v-5.3h-4.3v5.3
		h-5.3V51h5.3v5.3h4.3V51h5.3V46.8z"/>
</g>
</svg>
