<?xml version="1.0" encoding="utf-8"?>
<!-- Generator: Adobe Illustrator 19.0.0, SVG Export Plug-In . SVG Version: 6.00 Build 0)  -->
<svg version="1.1" id="Isolation_Mode" xmlns="http://www.w3.org/2000/svg" xmlns:xlink="http://www.w3.org/1999/xlink" x="0px"
	 y="0px" viewBox="0 0 100 100" style="enable-background:new 0 0 100 100;" xml:space="preserve">
<style type="text/css">
	.st0{fill:#F15A25;}
	.st1{fill:#FFFFFF;}
</style>
<circle class="st0" cx="50" cy="50" r="50"/>
<g>
	<path class="st1" d="M60.8,37.6C60.8,28.3,56,25,50,25c-6,0-10.8,3.4-10.8,12.6c0,7,4.8,12.6,10.8,12.6
		C56,50.2,60.8,44.6,60.8,37.6z"/>
	<path class="st1" d="M58.7,53c-1.8,2-4.7,5.1-8.7,9.2c-4-4.1-6.9-7.2-8.7-9.2c-15.9,3.9-14.7,18.7-14.7,18.7
		c23.2,7.1,46.9,0,46.9,0S74.6,56.9,58.7,53z"/>
	<g>
		<path class="st1" d="M47.8,53.1l1,2.3h2.6l1-2.3C52.5,53.1,50,52.3,47.8,53.1z"/>
		<polygon class="st1" points="48.8,55.5 46.2,67.5 50.1,70.6 53.8,67.3 51.4,55.5 		"/>
	</g>
</g>
</svg>
